<?xml version="1.0" encoding="utf-8"?>
<!-- Generator: Adobe Illustrator 15.1.0, SVG Export Plug-In . SVG Version: 6.00 Build 0)  -->
<!DOCTYPE svg PUBLIC "-//W3C//DTD SVG 1.1//EN" "http://www.w3.org/Graphics/SVG/1.1/DTD/svg11.dtd">
<svg version="1.1" id="Add" xmlns="http://www.w3.org/2000/svg" xmlns:xlink="http://www.w3.org/1999/xlink" x="0px" y="0px"
	 width="512px" height="512px" viewBox="0 0 512 512" enable-background="new 0 0 512 512" xml:space="preserve">
<path d="M428,152.274c0,14.804-11.795,25.316-26.5,25.727c-0.258,0.007-263.949,0-264.208,0c-15.063,0-27.274-10.664-27.274-25.727
	c0-15.063,12.211-27.274,27.274-27.274c0.258,0,263.95,0.004,264.207,0.011C416.205,125.42,428,137.469,428,152.274z"/>
<path d="M428,226.274c0,14.804-11.795,25.316-26.5,25.727c-0.258,0.007-263.949,0-264.208,0c-15.063,0-27.274-10.664-27.274-25.727
	c0-15.063,12.211-27.274,27.274-27.274c0.258,0,263.95,0.004,264.207,0.011C416.205,199.42,428,211.469,428,226.274z"/>
<path d="M428,300.274c0,14.804-11.795,25.316-26.5,25.727c-0.258,0.007-263.949,0-264.208,0c-15.063,0-27.274-10.663-27.274-25.727
	S122.229,273,137.292,273c0.258,0,263.95,0.004,264.207,0.011C416.205,273.42,428,285.469,428,300.274z"/>
</svg>
