<?xml version="1.0" encoding="utf-8"?>
<!-- Generator: Adobe Illustrator 15.1.0, SVG Export Plug-In . SVG Version: 6.00 Build 0)  -->
<!DOCTYPE svg PUBLIC "-//W3C//DTD SVG 1.1//EN" "http://www.w3.org/Graphics/SVG/1.1/DTD/svg11.dtd">
<svg version="1.1" id="Add" xmlns="http://www.w3.org/2000/svg" xmlns:xlink="http://www.w3.org/1999/xlink" x="0px" y="0px"
	 width="512px" height="512px" viewBox="0 0 512 512" enable-background="new 0 0 512 512" xml:space="preserve">
<path d="M140.891,256c0-63.573,51.536-115.109,115.109-115.109c24.593,0,47.38,7.717,66.084,20.854l56.536-56.536
	C345.171,77.976,302.496,61.641,256,61.641C148.658,61.641,61.641,148.658,61.641,256c0,100.616,76.456,183.375,174.439,193.351
	v-79.964C182.001,359.952,140.891,312.779,140.891,256z"/>
<path d="M450.359,256c0-46.496-16.335-89.171-43.568-122.62l-56.536,56.536c13.138,18.704,20.854,41.491,20.854,66.084
	c0,56.779-41.111,103.952-95.189,113.387v79.964C373.904,439.375,450.359,356.616,450.359,256z"/>
</svg>
