<?xml version="1.0" encoding="utf-8"?>
<!-- Generator: Adobe Illustrator 15.1.0, SVG Export Plug-In . SVG Version: 6.00 Build 0)  -->
<!DOCTYPE svg PUBLIC "-//W3C//DTD SVG 1.1//EN" "http://www.w3.org/Graphics/SVG/1.1/DTD/svg11.dtd">
<svg version="1.1" id="Layer_1" xmlns="http://www.w3.org/2000/svg" xmlns:xlink="http://www.w3.org/1999/xlink" x="0px" y="0px"
	 width="512px" height="512px" viewBox="0 0 512 512" enable-background="new 0 0 512 512" xml:space="preserve">
<g>
	<path d="M256,11.662C121.057,11.662,11.662,121.057,11.662,256c0,134.946,109.395,244.338,244.338,244.338
		c134.945,0,244.338-109.392,244.338-244.338C500.338,121.057,390.945,11.662,256,11.662z M399.566,347.088l-20.795-20.795H273.81
		l73.275,73.275c-26.356,16.779-57.592,26.55-91.085,26.55c-93.806,0-170.115-76.316-170.115-170.118
		c0-33.491,9.77-64.727,26.549-91.083l17.804,17.804h104.963l-70.287-70.287c26.358-16.781,57.591-26.549,91.087-26.549
		c93.803,0,170.117,76.313,170.117,170.116C426.117,289.494,416.347,320.729,399.566,347.088z"/>
	<g id="Layer_3">
		<g enable-background="new    ">
			<path d="M166.066,193.032l13.039,73.54h0.348l13.039-73.54h46.246v124.133h-30.25v-92.491h-0.348l-17.212,92.491h-23.296
				l-17.211-92.491h-0.348v92.491h-30.251V193.032H166.066z"/>
			<path d="M287.243,193.032v124.133h-32.338V193.032H287.243z"/>
		</g>
		<g enable-background="new    ">
			<path d="M341.137,193.032l20.862,76.497h0.349v-76.497h30.251v124.133h-35.467l-21.559-76.671h-0.347v76.671h-30.252V193.032
				H341.137z"/>
		</g>
	</g>
</g>
</svg>
